<svg fill="#000000" height="200px" width="200px" version="1.1" id="Layer_1" xmlns="http://www.w3.org/2000/svg" xmlns:xlink="http://www.w3.org/1999/xlink" viewBox="0 0 330 330" xml:space="preserve"><g id="SVGRepo_bgCarrier" stroke-width="0"></g><g id="SVGRepo_tracerCarrier" stroke-linecap="round" stroke-linejoin="round"></g><g id="SVGRepo_iconCarrier"> <g id="XMLID_92_"> <path id="XMLID_93_" d="M165,0C74.019,0,0,74.019,0,165s74.019,165,165,165s165-74.019,165-165S255.981,0,165,0z M165,300 c-74.44,0-135-60.561-135-135S90.56,30,165,30s135,60.561,135,135S239.439,300,165,300z"></path> <path id="XMLID_104_" d="M228.24,83.642c-5.606-2.322-12.058-1.039-16.347,3.252L170,128.787V97.5 c0-6.067-3.655-11.536-9.26-13.858c-5.606-2.322-12.058-1.039-16.347,3.252l-67.5,67.5c-5.858,5.857-5.858,15.355,0,21.213 l67.5,67.5c2.87,2.87,6.706,4.394,10.61,4.394c1.932,0,3.881-0.373,5.737-1.142c5.605-2.322,9.26-7.791,9.26-13.858v-31.287 l41.894,41.893c2.87,2.87,6.706,4.394,10.61,4.394c1.932,0,3.881-0.373,5.737-1.142c5.605-2.322,9.26-7.791,9.26-13.858v-135 C237.5,91.433,233.845,85.964,228.24,83.642z"></path> </g> </g></svg>